<svg fill="none" xmlns="http://www.w3.org/2000/svg" viewBox="0 0 38 63"><path d="M28.854 3.356c-4.145.243-7.812 1.274-10.541 4.53 1.653-1.517 3.546-2.71 5.758-3.054 2.073-.303 4.205-.303 6.317-.384.279-.02.618.202.877.404.837.668 1.634 1.355 2.55 2.123-1.395.162-2.67.203-3.905.465-1.236.263-2.451.748-3.607 1.294 1.455-.303 2.91-.728 4.364-.89 1.076-.12 2.192-.04 3.268.102.458.06.996.404 1.275.788.797 1.092 1.495 2.245 2.292 3.478-1.853-.223-3.468-.425-5.101-.607-.02.101-.02.202-.04.304.896.141 1.793.222 2.69.404.777.162 1.534.425 2.271.687.658.223.758.647.538 1.335-.438 1.455-1.494 1.577-2.77 1.637.519.223 1.037.445 1.336.546-.638 4.853-1.256 9.604-1.853 14.113-.02-.283-.06-.85-.08-1.416-.08-.04-.14-.08-.22-.12-.239.484-.537.97-.737 1.475-.418 1.092-.757 2.224-1.155 3.316-.379 1.051-1.116 1.617-2.252 1.637-1.594.04-3.188.102-4.763.223-1.713.141-2.849-.708-3.706-2.062-.558-.91-.996-1.9-1.574-2.79-.28-.425-.797-.95-1.216-.971-.418 0-.936.526-1.215.95-.698 1.052-1.236 2.224-1.933 3.276-.697 1.071-1.714 1.657-3.029 1.597-1.694-.081-3.387-.182-5.061-.223-1.196-.02-1.933-.626-2.312-1.698-.378-1.031-.697-2.103-1.076-3.134a4.29 4.29 0 00-.916-1.516c-.12.687-.22 1.355-.34 2.042.06 0 .12-.02.18-.02C2.511 26 1.873 20.805 1.215 15.609c-.02-.203-.02-.445-.04-.668-.08-2.123.06-2.345 2.193-3.154C1.993 6.005 5.16 3.013 9.943 1.072c-2.43 1.94-3.985 4.407-4.423 7.541.837-3.336 2.83-5.702 5.719-7.42 3.028-1.8 6.157-1.132 9.325-.748-4.165.809-7.452 2.85-9.485 6.712 1.993-2.89 4.623-4.812 8.05-5.54 3.408-.727 6.656-.424 9.725 1.74zM24.05 13.85l-.06.242c-1.394-.242-2.79-.526-4.204-.708-4.185-.505-8.35-.626-12.414.708-.997.324-1.873.566-2.471-.687.1.485.279.87.418 1.274.08.262.12.566.1.828-.1.789-.359 1.577-.339 2.366a13.29 13.29 0 01-.837 5.135c-.398 1.092-.518 2.305-.757 3.478 1.335.06 2.371-.02 3.228-.95.319-.344 1.016-.465 1.554-.486 2.89-.04 5.66.566 8.35 1.557.06.02.1.081.14.122-.1.161-.18.303-.28.465 1.614 1.03 3.467 1.01 4.822-.061-.1-.142-.179-.263-.278-.404 0-.02.02-.04.08-.122 2.749-.97 5.618-1.658 8.607-1.536.538.02 1.236.262 1.595.647.896.97 1.952.687 3.028.788-.478-2.992-.956-5.904-1.414-8.795-.02-.06-.06-.121-.08-.182-.22-.768-.678-1.172-1.495-1.415a38.97 38.97 0 01-4.623-1.78c-2.63-1.212-5.34-2.102-8.329-2.446 1.953.688 3.806 1.335 5.66 1.962zm2.451 21.33c4.723-.243 5.042-.263 5.998-4.873 0-.04.02-.06.02-.1.24-1.8-.259-2.63-2.032-2.933-2.392-.384-4.803-.626-7.114.486-.2.1-.439.141-.658.141-1.155-.06-2.052.87-1.933 2.062.28 3.094 2.67 5.257 5.72 5.217zM10.6 26.81c-1.574.262-2.85.404-4.105.687-.877.202-1.375.87-1.255 1.8a34.44 34.44 0 00.737 3.74c.299 1.172 1.136 1.779 2.311 1.9 1.156.101 2.312.162 3.468.243 1.933.162 3.228-.789 4.104-2.447.399-.768.758-1.577 1.037-2.385.438-1.315-.498-2.487-1.854-2.447-.219 0-.438-.08-.657-.141-1.335-.324-2.67-.668-3.786-.95z" fill="#1A202C"/><path d="M34.732 34.533c-.279.566-.418.87-.538 1.152-1.156 2.527-2.212 5.115-3.507 7.562-.518.99-.976 1.759-.538 2.911.299.768.299 1.638.438 2.467-.04.04-.08.06-.12.1-.119-.343-.278-.666-.358-1.03-.478-2.325-1.973-3.74-3.985-4.711-.837-.404-1.714-.708-2.59-1.031-1.156-.425-2.332-.485-3.468.121-.797.425-1.594.404-2.371-.02-.996-.526-2.033-.526-3.089-.223-3.387 1.011-6.336 2.487-7.094 6.45-.02.121-.08.243-.12.344.02-1.153.26-2.265.44-3.377.06-.343.02-.768-.14-1.091-.817-1.638-1.754-3.235-2.55-4.873-.698-1.456-1.256-2.972-1.894-4.468-.2.182-.239.303-.239.424.04 3.64-.02 7.279.14 10.918.08 1.517.358 3.134.996 4.468 1.275 2.609 2.83 5.095 4.344 7.562.518.87 1.295 1.557 1.973 2.345l.179-.12c-.28-.81-.558-1.598-.837-2.407.598.708 1.016 1.496 1.514 2.204.34.465.758 1.01 1.276 1.213 3.208 1.274 6.416 2.123 9.923.99 2.252-.727 4.085-1.657 5.002-3.962a.71.71 0 01.199-.223c.04.02.1.04.14.081-.22.668-.439 1.355-.658 2.022.1.081.18.142.279.223.319-.425.637-.85.976-1.274a37.457 37.457 0 005.52-9.422c.279-.707.498-1.476.558-2.224.14-1.537.18-3.093.2-4.65.02-2.69 0-5.419 0-8.451zM12.614 47.23c2.39-2.891 9.943-2.891 12.593 0-4.244.95-8.389.95-12.593 0zM2.052 35.746C.717 33.158-.378 30.489.12 27.476c.06-.383.617-.869 1.036-.95.578-.12.956.344.956.991 0 .202.06.384.12.728-1.495-.223-1.515.829-1.335 1.759.279 1.537.717 3.033 1.116 4.549.1.384.219.748.338 1.112-.12.02-.199.04-.299.08zm33.478-7.542c.059-.323.04-.646.178-.829.24-.343.578-.828.877-.849.34-.02.857.384.977.728.199.546.219 1.173.199 1.78-.1 2.385-.897 4.569-2.252 6.57.1-.364.18-.727.28-1.091.378-1.618.876-3.215 1.115-4.853.18-1.112-.16-1.354-1.375-1.456zm-9.944.89c0 1.476.418 2.062 1.375 2.042.976-.02 1.395-.687 1.275-2.143.817.222 1.594.445 2.431.667-1.913-2.042-5.5-1.94-7.034.223a79.324 79.324 0 001.953-.789z" fill="#1A202C"/><path d="M25.586 29.094c-.678.283-1.276.526-1.933.789 1.514-2.164 5.121-2.285 7.034-.223-.837-.242-1.614-.445-2.431-.667.12 1.476-.319 2.143-1.275 2.143-.977.02-1.395-.546-1.395-2.042zm-13.112.121c-.379.688-.558 1.355-.996 1.699-.3.242-1.136.182-1.435-.081-.398-.344-.498-1.031-.797-1.76-.498.122-1.275.324-2.052.547 1.574-2.002 5.1-1.9 7.113.323-.817-.303-1.434-.566-1.833-.728z" fill="#1A202C"/></svg>